<svg width="124" height="108" viewBox="0 0 124 108" fill="none" xmlns="http://www.w3.org/2000/svg">
<path d="M12.1958 45.4315C12.1958 45.4315 13.5971 47.2488 12.1958 50.3799C9.63398 56.1056 -0.00012207 51.7812 -0.00012207 45.4205C-0.00012207 39.0708 6.25109 23.7328 20.2315 29.0206C34.2228 34.3085 22.3225 56.9267 27.0739 65.5536C31.8362 74.1914 21.1292 74.1695 18.447 68.816C15.7648 63.4735 25.8915 50.6755 23.8005 43.8331C21.7204 36.9907 2.95579 35.3047 12.1958 45.4315Z" fill="#4D658F"/>
<path d="M37.1018 79.6325C37.1018 82.1505 35.0655 84.1868 32.5584 84.1868C30.0404 84.1868 28.0042 82.1505 28.0042 79.6325C28.0042 77.1254 30.0404 75.0891 32.5584 75.0891C35.0655 75.0891 37.1018 77.1254 37.1018 79.6325Z" fill="#4D658F"/>
<path d="M104.869 42.2455C104.869 42.2455 104.201 44.4351 100.84 45.1029C94.6765 46.329 92.6293 35.9614 97.8186 32.283C102.997 28.6045 119.123 24.8384 122.9 39.3005C126.688 53.7736 101.355 57.1455 97.0632 66.0242C92.7826 74.9029 86.597 66.1446 89.4106 60.8678C92.2242 55.5909 108.515 56.4448 112.894 50.7848C117.273 45.1248 107.781 28.8344 104.869 42.2455Z" fill="#4D658F"/>
<path d="M91.3813 82.3476C89.334 83.8037 86.4985 83.311 85.0424 81.2638C83.5864 79.2165 84.0681 76.381 86.1263 74.925C88.1735 73.4689 91.009 73.9506 92.4651 75.9978C93.9212 78.056 93.4394 80.8915 91.3813 82.3476Z" fill="#4D658F"/>
<path d="M67.3616 89.3871C66.6609 93.2735 62.9387 95.8463 59.0631 95.1347C55.1766 94.434 52.6039 90.7117 53.3046 86.8362C54.0162 82.9497 57.7275 80.377 61.614 81.0777C65.5004 81.7893 68.0732 85.5006 67.3616 89.3871Z" fill="#4D658F"/>
<path d="M48.8816 31.243C52.6696 39.9684 39.6745 45.8693 35.5252 37.3081C31.8687 29.7869 27.38 16.6605 34.6385 7.5847C45.3455 -5.79355 86.3342 -1.58958 88.5018 21.1162C90.6805 43.8111 62.3256 50.2703 65.2924 66.4731C68.2593 82.665 49.7355 77.5195 53.0199 64.2398C56.2933 50.9491 77.6525 28.8345 69.8467 21.9045C62.0519 14.9745 41.459 17.7333 47.9948 29.4585C48.3306 30.0643 48.6262 30.6591 48.8816 31.243Z" fill="#4D658F"/>
<path d="M96.2969 104.626C96.2969 106.115 79.9079 107.319 59.6982 107.319C39.4776 107.319 23.0887 106.115 23.0887 104.626C23.0887 103.137 39.4776 101.933 59.6982 101.933C79.9079 101.933 96.2969 103.137 96.2969 104.626Z" fill="#D6D6D6"/>
</svg>
